<svg width="26" height="26" viewBox="0 0 26 26" fill="none" xmlns="http://www.w3.org/2000/svg">
<path d="M9.9079 1.06579C8.16663 1.06579 6.75 2.48242 6.75 4.22368C6.75 4.72547 6.86684 5.208 7.09769 5.65863L7.33295 6.11842H6.81663H1.06579V11.3889C1.47095 11.244 1.89379 11.1711 2.32895 11.1711C4.41853 11.1711 6.11842 12.8709 6.11842 14.9605C6.11842 17.0501 4.41853 18.75 2.32895 18.75C1.89379 18.75 1.47095 18.6771 1.06579 18.5321V24.4342H19.3816V18.0521V17.5358L19.8414 17.7711C20.292 18.0016 20.7745 18.1184 21.2763 18.1184C23.0176 18.1184 24.4342 16.7018 24.4342 14.9605C24.4342 13.2193 23.0176 11.8026 21.2763 11.8026C20.7745 11.8026 20.292 11.9195 19.8414 12.1503L19.3816 12.3856V11.8689V6.11842H12.9995H12.4832L12.7184 5.65863C12.9489 5.208 13.0658 4.72547 13.0658 4.22368C13.0658 2.48242 11.6492 1.06579 9.9079 1.06579ZM9.9079 0.75C11.8263 0.75 13.3816 2.30526 13.3816 4.22368C13.3816 4.79274 13.242 5.32863 12.9995 5.80263H19.6974V11.8689C20.1714 11.6264 20.7073 11.4868 21.2763 11.4868C23.1947 11.4868 24.75 13.0421 24.75 14.9605C24.75 16.8789 23.1947 18.4342 21.2763 18.4342C20.7073 18.4342 20.1714 18.2946 19.6974 18.0521V24.75H0.750001V18.0521C1.224 18.2946 1.7599 18.4342 2.32895 18.4342C4.24737 18.4342 5.80263 16.8789 5.80263 14.9605C5.80263 13.0421 4.24737 11.4868 2.32895 11.4868C1.7599 11.4868 1.224 11.6264 0.750001 11.8689V5.80263H6.81632C6.57379 5.32863 6.43421 4.79274 6.43421 4.22368C6.43421 2.30526 7.98947 0.75 9.9079 0.75Z" stroke="#292D32" stroke-width="1.5"/>
</svg>
