<svg width="149" height="44" viewBox="0 0 149 44" fill="none" xmlns="http://www.w3.org/2000/svg">
<path d="M60.7544 17.9639C60.6499 17.6009 60.5033 17.2803 60.3144 17.0019C60.1254 16.7185 59.8943 16.4798 59.6208 16.286C59.3524 16.0871 59.0441 15.9355 58.6961 15.8311C58.3531 15.7267 57.9727 15.6744 57.5551 15.6744C56.7746 15.6744 56.0885 15.8683 55.4969 16.2561C54.9102 16.6439 54.4529 17.2082 54.1247 17.949C53.7966 18.6847 53.6325 19.5846 53.6325 20.6485C53.6325 21.7124 53.7941 22.6173 54.1173 23.363C54.4404 24.1088 54.8978 24.678 55.4894 25.0708C56.0811 25.4585 56.7796 25.6524 57.585 25.6524C58.3158 25.6524 58.9397 25.5232 59.4568 25.2646C59.9788 25.0012 60.3765 24.6308 60.6499 24.1535C60.9284 23.6762 61.0676 23.1119 61.0676 22.4607L61.7238 22.5576H57.7863V20.1265H64.1773V22.0505C64.1773 23.3928 63.8939 24.5463 63.3271 25.5107C62.7604 26.4703 61.9798 27.211 60.9855 27.733C59.9912 28.2501 58.8527 28.5086 57.57 28.5086C56.1382 28.5086 54.8804 28.1929 53.7966 27.5615C52.7128 26.9252 51.8676 26.0228 51.2611 24.8545C50.6595 23.6812 50.3588 22.2892 50.3588 20.6784C50.3588 19.4404 50.5377 18.3367 50.8957 17.3673C51.2586 16.3928 51.7657 15.5676 52.417 14.8914C53.0683 14.2153 53.8264 13.7007 54.6915 13.3477C55.5566 12.9948 56.4937 12.8183 57.5029 12.8183C58.368 12.8183 59.1734 12.945 59.9191 13.1986C60.6649 13.4472 61.3261 13.8002 61.9028 14.2575C62.4845 14.7149 62.9593 15.2593 63.3271 15.8907C63.695 16.5171 63.9312 17.2082 64.0356 17.9639H60.7544ZM66.7531 28.2998V16.8453H69.833V18.8438H69.9524C70.1612 18.1329 70.5117 17.596 71.0039 17.233C71.496 16.8651 72.0628 16.6812 72.7041 16.6812C72.8632 16.6812 73.0348 16.6911 73.2187 16.711C73.4026 16.7309 73.5642 16.7583 73.7034 16.7931V19.6119C73.5543 19.5672 73.348 19.5274 73.0845 19.4926C72.821 19.4578 72.5799 19.4404 72.3611 19.4404C71.8938 19.4404 71.4762 19.5423 71.1083 19.7462C70.7453 19.945 70.457 20.2235 70.2432 20.5814C70.0344 20.9394 69.93 21.352 69.93 21.8193V28.2998H66.7531ZM80.1981 28.5235C79.0398 28.5235 78.038 28.2774 77.1928 27.7852C76.3526 27.2881 75.7038 26.597 75.2464 25.7121C74.7891 24.8222 74.5604 23.7906 74.5604 22.6173C74.5604 21.434 74.7891 20.3999 75.2464 19.515C75.7038 18.6251 76.3526 17.934 77.1928 17.4418C78.038 16.9447 79.0398 16.6961 80.1981 16.6961C81.3565 16.6961 82.3558 16.9447 83.196 17.4418C84.0412 17.934 84.6925 18.6251 85.1498 19.515C85.6072 20.3999 85.8359 21.434 85.8359 22.6173C85.8359 23.7906 85.6072 24.8222 85.1498 25.7121C84.6925 26.597 84.0412 27.2881 83.196 27.7852C82.3558 28.2774 81.3565 28.5235 80.1981 28.5235ZM80.2131 26.0626C80.74 26.0626 81.18 25.9134 81.533 25.6151C81.886 25.3119 82.152 24.8992 82.331 24.3772C82.5149 23.8552 82.6069 23.2611 82.6069 22.5949C82.6069 21.9287 82.5149 21.3346 82.331 20.8126C82.152 20.2906 81.886 19.8779 81.533 19.5747C81.18 19.2714 80.74 19.1198 80.2131 19.1198C79.6811 19.1198 79.2337 19.2714 78.8707 19.5747C78.5128 19.8779 78.2418 20.2906 78.0579 20.8126C77.8789 21.3346 77.7894 21.9287 77.7894 22.5949C77.7894 23.2611 77.8789 23.8552 78.0579 24.3772C78.2418 24.8992 78.5128 25.3119 78.8707 25.6151C79.2337 25.9134 79.6811 26.0626 80.2131 26.0626ZM90.0841 28.2998L86.9669 16.8453H90.181L91.9559 24.5413H92.0603L93.9097 16.8453H97.0642L98.9435 24.4965H99.0404L100.785 16.8453H103.992L100.882 28.2998H97.5191L95.5504 21.096H95.4087L93.4399 28.2998H90.0841ZM116.576 16.8453L112.571 28.2998H108.992L104.987 16.8453H108.343L110.722 25.0409H110.841L113.213 16.8453H116.576ZM129.09 16.8453L125.086 28.2998H121.506L117.502 16.8453H120.858L123.236 25.0409H123.356L125.727 16.8453H129.09ZM132.887 32.5953C132.485 32.5953 132.107 32.5629 131.754 32.4983C131.406 32.4387 131.118 32.3616 130.889 32.2671L131.605 29.8957C131.978 30.01 132.313 30.0722 132.612 30.0821C132.915 30.0921 133.176 30.0225 133.395 29.8733C133.618 29.7242 133.8 29.4706 133.939 29.1127L134.125 28.6279L130.016 16.8453H133.357L135.729 25.2572H135.848L138.242 16.8453H141.605L137.153 29.5377C136.939 30.1542 136.648 30.6911 136.281 31.1485C135.918 31.6109 135.458 31.9664 134.901 32.2149C134.344 32.4685 133.673 32.5953 132.887 32.5953Z" fill="#0A0A0A"/>
<path d="M20.1786 30.9001C25.3842 30.9001 29.6042 26.6801 29.6042 21.4745C29.6042 16.2688 25.3842 12.0488 20.1786 12.0488C14.9729 12.0488 10.7529 16.2688 10.7529 21.4745C10.7529 26.6801 14.9729 30.9001 20.1786 30.9001Z" fill="white"/>
<path opacity="0.15" d="M29.6053 21.4745C29.6053 26.6808 25.3856 30.9005 20.1793 30.9005C17.1406 30.9005 14.4403 29.4675 12.7192 27.2352C14.3178 28.481 16.3269 29.2155 18.5015 29.2155C23.7006 29.2155 27.9203 24.9958 27.9203 19.7967C27.9203 17.6076 27.1714 15.5986 25.9256 14C28.1652 15.721 29.6053 18.4286 29.6053 21.4745Z" fill="#737373"/>
<path d="M28.189 27.6298C27.8866 28.0582 27.5506 28.453 27.1726 28.8142C25.627 30.3346 23.5102 31.267 21.175 31.267C18.2854 31.267 15.7234 29.8306 14.1694 27.6298C14.5138 27.193 14.9002 26.7814 15.3202 26.4118C16.4206 25.4542 17.7562 24.7738 19.2262 24.4462C18.1174 23.7826 17.3614 22.5814 17.3614 21.1954C17.3614 19.5154 18.4618 18.0958 19.9738 17.5918C20.0326 17.575 20.0914 17.5582 20.1502 17.5414C20.2006 17.5246 20.2594 17.5078 20.3182 17.4994C20.3434 17.4826 20.377 17.4742 20.4106 17.4742C20.5534 17.4406 20.7046 17.4154 20.8642 17.3986C20.965 17.3902 21.0742 17.3818 21.175 17.3818C23.2834 17.3818 24.9887 19.087 24.9887 21.1954C24.9887 22.5814 24.241 23.7826 23.1322 24.4546C25.1566 24.8998 26.9374 26.0422 28.189 27.6298Z" fill="#1A73E8" stroke="#FEFEFE" stroke-width="0.2"/>
<path d="M34.0167 7.69843C35.7995 7.69843 37.2448 6.25315 37.2448 4.47031C37.2448 2.68747 35.7995 1.24219 34.0167 1.24219C32.2339 1.24219 30.7886 2.68747 30.7886 4.47031C30.7886 6.25315 32.2339 7.69843 34.0167 7.69843Z" fill="#1A73E8"/>
<path opacity="0.15" d="M37.2007 4.47401C37.2007 6.25481 35.7559 7.69963 33.9667 7.69963C32.5975 7.69963 31.4299 6.85122 30.9595 5.65003C31.3207 5.79281 31.7239 5.86839 32.1354 5.86839C33.9163 5.86839 35.3611 4.42361 35.3611 2.63441C35.3611 2.22281 35.2854 1.82799 35.1427 1.4668C36.3523 1.93719 37.2007 3.1048 37.2007 4.47401Z" fill="white"/>
<path d="M8.66173 41.5647C10.7099 41.5647 12.3703 39.9043 12.3703 37.8561C12.3703 35.8079 10.7099 34.1475 8.66173 34.1475C6.61352 34.1475 4.95312 35.8079 4.95312 37.8561C4.95312 39.9043 6.61352 41.5647 8.66173 41.5647Z" fill="#1A73E8"/>
<path opacity="0.15" d="M12.369 37.8541C12.369 39.9037 10.7059 41.5669 8.65626 41.5669C6.85865 41.5669 5.34666 40.2733 5.01904 38.5597C5.65745 39.0553 6.45546 39.3577 7.32904 39.3577C9.37864 39.3577 11.0418 37.7029 11.0418 35.6533C11.0418 35.4181 11.0167 35.1829 10.9747 34.9561C11.823 35.6365 12.369 36.6781 12.369 37.8541Z" fill="white"/>
<path d="M3.92073 9.62857C5.39924 9.62857 6.59781 8.43 6.59781 6.95149C6.59781 5.47298 5.39924 4.27441 3.92073 4.27441C2.44222 4.27441 1.24365 5.47298 1.24365 6.95149C1.24365 8.43 2.44222 9.62857 3.92073 9.62857Z" fill="#1A73E8"/>
<path opacity="0.15" d="M6.5994 6.95105C6.5994 8.42945 5.3982 9.63065 3.9198 9.63065C2.81099 9.63065 1.86179 8.95865 1.4502 7.99264C1.7694 8.11865 2.11378 8.19423 2.48338 8.19423C3.96179 8.19423 5.16298 6.99304 5.16298 5.51463C5.16298 5.14503 5.0874 4.80065 4.96139 4.48145C5.9274 4.89304 6.5994 5.84224 6.5994 6.95105Z" fill="white"/>
<path d="M37.3391 33.8276C39.6722 33.8276 41.5635 31.9363 41.5635 29.6033C41.5635 27.2702 39.6722 25.3789 37.3391 25.3789C35.0061 25.3789 33.1147 27.2702 33.1147 29.6033C33.1147 31.9363 35.0061 33.8276 37.3391 33.8276Z" fill="#1A73E8"/>
<path opacity="0.15" d="M41.5608 29.6065C41.5608 31.9333 39.6708 33.8233 37.344 33.8233C35.3868 33.8233 33.7404 32.4961 33.27 30.6901C33.9672 31.2109 34.8324 31.5133 35.7648 31.5133C38.1 31.5133 39.99 29.6233 39.99 27.2965C39.99 26.9185 39.9396 26.5573 39.8388 26.2129C40.8804 26.9689 41.5608 28.2121 41.5608 29.6065Z" fill="white"/>
<path d="M34.665 0.149414C37.0441 0.149414 38.9863 2.09168 38.9863 4.4707C38.9863 6.85013 37.0437 8.7832 34.665 8.7832C34.0624 8.78316 33.4851 8.64812 32.9609 8.41895L27.9551 14.2314C29.9533 16.1696 31.2118 18.8746 31.2119 21.877C31.2119 23.0529 31.0073 24.1792 30.6504 25.2412L33.9189 26.916C34.8955 25.6732 36.4155 24.8574 38.1143 24.8574C41.0609 24.8576 43.4502 27.2556 43.4502 30.1934C43.4502 33.1399 41.0608 35.5291 38.1143 35.5293C35.176 35.5293 32.7871 33.1399 32.7871 30.1934C32.7871 29.6819 32.8537 29.1833 32.9961 28.7119L29.8398 27.0898C27.9927 30.3685 24.4816 32.5361 20.5439 32.5361C18.57 32.5361 16.7303 31.979 15.1445 31.0381C15.0758 31.1392 14.9712 31.2959 14.8398 31.4893C14.567 31.8909 14.1835 32.455 13.792 33.0312C13.131 34.0041 12.4459 35.0111 12.2305 35.3281C13.0577 36.1905 13.5645 37.3607 13.5645 38.6475C13.5643 41.3019 11.4076 43.45 8.75391 43.4502C6.10849 43.4502 3.95129 41.3018 3.95117 38.6475C3.95117 35.9934 6.10805 33.8359 8.75391 33.8359C9.39325 33.836 10.0005 33.9693 10.5547 34.1963C10.5561 34.1943 10.5582 34.1925 10.5596 34.1904C10.6289 34.0886 10.7389 33.9264 10.877 33.7236C11.153 33.318 11.5407 32.7486 11.9365 32.167C12.6 31.192 13.2862 30.1826 13.5088 29.8555C11.3297 27.9383 9.88477 25.0718 9.88477 21.877C9.88483 19.4168 10.731 17.1584 12.125 15.3545L5.96387 10.126C5.37393 10.5161 4.6679 10.7529 3.90332 10.7529C1.83435 10.7529 0.149423 9.07771 0.149414 7.00781C0.149414 4.93837 1.83388 3.25488 3.90332 3.25488C5.97271 3.25495 7.65625 4.93841 7.65625 7.00781C7.65625 7.57656 7.51445 8.11186 7.2793 8.59375L13.5166 13.8877C15.3963 12.2304 17.8514 11.209 20.5439 11.209C22.7026 11.209 24.7026 11.8533 26.3809 12.959L31.3457 7.19531C30.7368 6.45416 30.3525 5.51203 30.3525 4.4707C30.3526 2.09219 32.2858 0.149595 34.665 0.149414ZM8.75391 35.8564C7.22052 35.8564 5.9707 37.1129 5.9707 38.6475C5.97083 40.1813 7.22002 41.4297 8.75391 41.4297C10.2965 41.4295 11.5448 40.1809 11.5449 38.6475C11.5449 37.1133 10.296 35.8566 8.75391 35.8564ZM38.1143 26.8779C36.2884 26.8779 34.8067 28.3665 34.8066 30.1934C34.8066 32.0202 36.2884 33.5088 38.1143 33.5088C39.9489 33.5086 41.4297 32.0198 41.4297 30.1934C41.4297 28.3669 39.9489 26.8781 38.1143 26.8779ZM20.5439 13.2295C15.7853 13.2296 11.9054 17.1095 11.9053 21.877C11.9053 26.5945 15.7482 30.5165 20.5439 30.5166C25.322 30.5166 29.1924 26.6203 29.1924 21.877C29.1922 17.1095 25.3114 13.2295 20.5439 13.2295ZM3.90332 5.27441C2.94555 5.27441 2.16992 6.05009 2.16992 7.00781C2.16993 7.95652 2.9451 8.73242 3.90332 8.73242C4.86143 8.73236 5.63671 7.95648 5.63672 7.00781C5.63672 6.05013 4.86099 5.27448 3.90332 5.27441ZM34.665 2.16992C33.3986 2.1701 32.3731 3.20282 32.373 4.4707C32.373 5.7379 33.3979 6.76348 34.665 6.76367C35.9331 6.76367 36.9668 5.73733 36.9668 4.4707C36.9667 3.2034 35.9324 2.16992 34.665 2.16992Z" fill="#293C66" stroke="white" stroke-width="0.3"/>
</svg>
